# xmcd
# 
# Track frame offsets:
#     183
#     16233
#     30068
#     42563
#     62988
#     74740
#     87015
#     97065
#     118760
#     130345
#     141435
#     153143
# 
# Disc length: 2233
# 
# Revision: 4
# Processed by: cddbd v1.5.2PL0 Copyright (c) Steve Scherf et al.
# Submitted via: BonkEnc v1.0rc1
# 
DISCID=a508b70c
DTITLE=Emmylou Harris - Angel Band
DYEAR=1987
DGENRE=Country
TTITLE0=Where Could I Go But To The Lord
TTITLE1=Angel Band
TTITLE2=If I Be Lifted Up
TTITLE3=Precious Memories
TTITLE4=Bright Morning Stars
TTITLE5=When He Calls
TTITLE6=We Shall Rise
TTITLE7=Drifting Too Far
TTITLE8=Who Will Sing For Me
TTITLE9=Someday My Ship Will Sail
TTITLE10=The Other Side Of Life
TTITLE11=When They Ring Those Golden Bells
EXTD=YEAR: 1987
EXTT0=
EXTT1=
EXTT2=
EXTT3=
EXTT4=
EXTT5=
EXTT6=
EXTT7=
EXTT8=
EXTT9=
EXTT10=
EXTT11=
PLAYORDER=
